<?xml version="1.0" encoding="UTF-8"?> <svg xmlns="http://www.w3.org/2000/svg" viewBox="0 0 272.15 116.54"><defs><style>.cls-1{fill:#fff;}</style></defs><title>xg-logo-white</title><g id="Layer_2" data-name="Layer 2"><g id="Layer_1-2" data-name="Layer 1"><g id="_Group_" data-name="&lt;Group&gt;"><g id="_Group_2" data-name="&lt;Group&gt;"><g id="_Group_3" data-name="&lt;Group&gt;"><polygon class="cls-1" points="96.74 0 70.08 0 35.3 46.08 69.91 92 96.58 92 61.8 46.14 96.74 0"></polygon><g id="_Group_4" data-name="&lt;Group&gt;"><polygon id="_Path_" data-name="&lt;Path&gt;" class="cls-1" points="0 92 31.64 51.01 44.9 68.54 26.67 92 0 92"></polygon></g><g id="_Group_5" data-name="&lt;Group&gt;"><polygon id="_Path_2" data-name="&lt;Path&gt;" class="cls-1" points="0 0 31.64 40.99 44.9 23.46 26.67 0 0 0"></polygon></g></g></g><g id="_Group_6" data-name="&lt;Group&gt;"><g id="_Group_7" data-name="&lt;Group&gt;"><path id="_Compound_Path_" data-name="&lt;Compound Path&gt;" class="cls-1" d="M102.84,61.14a47.46,47.46,0,0,1,1.61-12.83,29.37,29.37,0,0,1,4.65-9.79,21,21,0,0,1,7.42-6.26,21.72,21.72,0,0,1,9.9-2.2,22.63,22.63,0,0,1,11.23,2.62A21.91,21.91,0,0,1,145.37,40l.34-8.8H152v60a30.4,30.4,0,0,1-1.75,10.63,22.49,22.49,0,0,1-4.94,8,21.38,21.38,0,0,1-7.7,5,28.38,28.38,0,0,1-21.75-.85,26.93,26.93,0,0,1-5.27-3.24,21.52,21.52,0,0,1-4.34-4.6l3.78-4.06a24.9,24.9,0,0,0,7.9,6.68,19.92,19.92,0,0,0,9.14,2.12,20.87,20.87,0,0,0,7.7-1.33,15.18,15.18,0,0,0,5.67-3.84A16.83,16.83,0,0,0,144,99.59a25.36,25.36,0,0,0,1.21-8.15V84.33A21.41,21.41,0,0,1,137.47,91a24.25,24.25,0,0,1-11.17,2.4,20.76,20.76,0,0,1-9.82-2.29,21.77,21.77,0,0,1-7.39-6.37,29.7,29.7,0,0,1-4.65-9.79,46.23,46.23,0,0,1-1.61-12.58Zm6.83,1.18a43.79,43.79,0,0,0,1.07,10,24.87,24.87,0,0,0,3.27,8,16.09,16.09,0,0,0,5.56,5.3,15.82,15.82,0,0,0,8,1.92,21.66,21.66,0,0,0,6.29-.85,17.34,17.34,0,0,0,4.94-2.34,17,17,0,0,0,3.72-3.53,23.16,23.16,0,0,0,2.71-4.46V47.94a23.68,23.68,0,0,0-2.45-4.54,17.47,17.47,0,0,0-3.61-3.84,17,17,0,0,0-4.94-2.65,19.8,19.8,0,0,0-6.54-1,15.91,15.91,0,0,0-8.07,1.95A16.26,16.26,0,0,0,114,43.2a24.87,24.87,0,0,0-3.27,8,43.9,43.9,0,0,0-1.07,9.93Z"></path><path id="_Compound_Path_2" data-name="&lt;Compound Path&gt;" class="cls-1" d="M194.95,36.94a25.28,25.28,0,0,0-4.57-.39,17.9,17.9,0,0,0-6.21,1,15.6,15.6,0,0,0-4.88,2.85,16.65,16.65,0,0,0-3.55,4.34,24.07,24.07,0,0,0-2.28,5.56V92.22h-6.71v-61h6.6l.11,9.7A20.2,20.2,0,0,1,180.19,33a18.13,18.13,0,0,1,10.46-2.91,14.91,14.91,0,0,1,2.54.23,8.52,8.52,0,0,1,1.92.51Z"></path><path id="_Compound_Path_3" data-name="&lt;Compound Path&gt;" class="cls-1" d="M202.33,13.53a4.57,4.57,0,0,1,1.24-3.24A4.41,4.41,0,0,1,207,9a4.44,4.44,0,0,1,4.68,4.57,4.42,4.42,0,0,1-1.27,3.22A4.56,4.56,0,0,1,207,18a4.35,4.35,0,0,1-4.63-4.51Zm8,78.7h-6.77v-61h6.77Z"></path><path id="_Compound_Path_4" data-name="&lt;Compound Path&gt;" class="cls-1" d="M223,61.14a46.68,46.68,0,0,1,1.64-12.83,29.76,29.76,0,0,1,4.68-9.79,21,21,0,0,1,7.42-6.26,21.59,21.59,0,0,1,9.84-2.2,22.55,22.55,0,0,1,11.14,2.6,22.09,22.09,0,0,1,7.7,7.16V5.57h6.71V92.22h-6.32l-.28-8.12a21.43,21.43,0,0,1-7.76,6.8,24.21,24.21,0,0,1-11.31,2.45,20.64,20.64,0,0,1-9.76-2.29,21.76,21.76,0,0,1-7.39-6.37,30.1,30.1,0,0,1-4.68-9.79A45.48,45.48,0,0,1,223,62.32Zm6.83,1.18a43.79,43.79,0,0,0,1.07,10,24.9,24.9,0,0,0,3.27,8,16.1,16.1,0,0,0,5.56,5.3,15.82,15.82,0,0,0,8,1.92,22.12,22.12,0,0,0,6.23-.82,17.65,17.65,0,0,0,5-2.28,16.71,16.71,0,0,0,3.78-3.5,23,23,0,0,0,2.74-4.4V47.83A27.41,27.41,0,0,0,263,43.37a16.9,16.9,0,0,0-3.61-3.81,17.42,17.42,0,0,0-5-2.65,19.8,19.8,0,0,0-6.54-1,15.91,15.91,0,0,0-8.07,1.95,16.27,16.27,0,0,0-5.58,5.33,24.89,24.89,0,0,0-3.27,8,43.9,43.9,0,0,0-1.07,9.93Z"></path></g></g></g></g></g></svg>